<svg xmlns="http://www.w3.org/2000/svg" width="1591" height="208" xmlns:xlink="http://www.w3.org/1999/xlink">
  <defs>
    <path id="a" d="M210-107l115 96 20-71c8-25 29-37 56-37h133c12 0 21 4 29 12L692 0c10 9 16 20 20 33l50 136c19 50 19 83 19 127v388c0 32-14 46-46 46H586c-15 0-25-3-32-9L424 612l-1-1c-8-7-12-18-12-36v-92h-14c-19 0-34-4-45-13l-56-47v261c0 32-14 46-46 46H96c-14 0-25-3-32-9L-65 612c-9-8-14-19-14-37V189c0-44 0-77 19-127l50-138c8-26 27-43 53-43h132c13 0 25 5 35 12zm205 854zm0-747z"/>
    <path id="c" d="M440-119c14 0 25 4 31 10L601-1c9 8 14 19 14 37v117c0 32-14 46-46 46H431l89 75c9 8 14 19 14 37v107c0 21-6 34-19 41l86 71c9 8 14 19 14 37v117c0 32-14 46-46 46H105c-14 0-25-3-32-9L-56 612c-9-8-14-19-14-37V-73c0-32 14-46 46-46z"/>
    <path id="b" d="M292-1c9 8 14 19 14 37v103h18V-73c0-32 14-46 46-46h155c14 0 25 4 31 10L686-1c9 8 14 19 14 37v648c0 32-14 46-46 46H499c-14 0-25-3-32-9L338 612c-9-8-14-19-14-37v-98h-18v207c0 32-14 46-46 46H105c-14 0-25-3-32-9L-56 612c-9-8-14-19-14-37V-73c0-32 14-46 46-46h155c14 0 25 4 31 10z"/>
    <path id="e" d="M386-119c14 0 25 4 31 10L547-1c9 8 14 19 14 37v119c0 32-14 46-46 46h-87v225l119 100c9 8 14 19 14 37v121c0 32-14 46-46 46H89c-14 0-25-3-32-9L-72 612c-9-8-14-19-14-37V454c0-32 14-46 46-46h89V185L-72 83c-9-8-14-19-14-37V-73c0-32 14-46 46-46z"/>
    <path id="g" d="M286-1c9 8 14 19 14 37v92h13c19 0 32 5 43 14l59 49V-73c0-32 13-46 46-46h154c14 0 25 4 31 10L776-1c9 8 14 19 14 37v648c0 32-14 46-46 46H582c-16 0-26-4-37-12L416 610c-7-6-13-14-18-24l-9-16-68 125c-15 26-30 35-55 35H105c-14 0-25-3-32-9L-56 612c-9-8-14-19-14-37V-73c0-32 14-46 46-46h149c14 0 25 4 31 10z"/>
    <path id="i" d="M287-1c9 8 14 19 14 37v37l22-27V-73c0-32 14-46 46-46h150c14 0 25 4 31 10L680-1c9 8 14 19 14 37v648c0 32-14 46-46 46H498c-14 0-25-3-32-9L345 620l-69 80c-20 22-38 30-67 30H105c-14 0-25-3-32-9L-56 612c-9-8-14-19-14-37V-73c0-32 14-46 46-46h150c14 0 25 4 31 10z"/>
    <path id="j" d="M500-71L629 37c45 38 60 90 60 152v341c0 126-58 215-320 215-134 0-213-23-260-63L-21 574c-45-38-60-91-60-153V110c0-126 59-244 321-244 133 0 213 23 260 63zM295 225v189c15-6 19-16 19-29V195c-15 7-19 17-19 30z"/>
    <path id="k" d="M215-119c14 0 25 4 31 10L376-1c9 8 14 19 14 37v133c19 7 35 16 50 28l129 108c33 28 52 70 52 134v105c0 120-80 186-217 186H81c-14 0-25-3-32-9L-80 612c-9-8-14-19-14-37V454c0-33 14-46 46-46H90l-92-77c-11-9-16-23-12-43L7 156c3-20 10-31 21-36L-1 95c-9-6-13-18-13-37V-73c0-32 13-46 46-46z"/>
    <path id="d" d="M291-1c9 8 14 19 14 37v77h1c21 0 28-11 28-33V-73c0-32 14-46 46-46h155c14 0 25 4 31 10L696-1c9 8 14 19 14 37v212c0 79-41 132-104 150h1c27 23 38 60 38 109v46c0 104-48 177-207 177H105c-14 0-25-3-32-9L-56 612c-9-8-14-19-14-37V-73c0-32 14-46 46-46h154c14 0 25 4 31 10z"/>
    <path id="f" d="M-42-119h316c67 0 121 17 158 48L561 37c39 32 59 79 59 139v105c0 108-55 153-140 172l90 75c9 8 14 19 14 37v119c0 32-14 46-46 46H258c-68 0-122-17-158-47L-30 574c-38-32-58-79-58-139V330c0-97 43-143 114-165L-74 81c-9-8-14-19-14-37V-73c0-32 14-46 46-46z"/>
    <path id="h" d="M305-119c14 0 25 4 31 10L466-1c9 8 14 19 14 37v124l150 203c32 43 40 64 40 129v192c0 32-14 46-46 46H475c-14 0-25-3-32-9L314 612c-9-8-14-19-14-37V466l-12 17c-7 13-7 25-7 37v164c0 32-14 46-46 46H81c-14 0-25-3-32-9L-80 612c-9-8-14-19-14-37V383c0-65 8-86 40-129L97 52V-73c0-32 13-46 46-46zm47 866zm0-747z"/>
    <path id="l" d="M586 720c-26 0-36-11-36-36V316l-58 126c-11 23-27 31-53 31h-42c-26 0-42-8-53-31l-58-126v368c0 25-11 36-36 36H96c-25 0-36-11-36-36V298c0-43 0-75 18-124l50-138c7-21 22-36 44-36h132c21 0 36 10 42 30l47 163c4 13 10 17 18 17h9c8 0 14-4 18-17l46-163c6-21 24-30 46-30h133c21 0 33 16 40 36l50 136c18 49 18 81 18 124v388c0 25-11 36-36 36zm-171 27zm0-747z"/>
    <path id="n" d="M569 0c25 0 36 11 36 36v117c0 25-11 36-36 36H293v86h195c25 0 36 11 36 36v107c0 25-11 36-36 36H293v77h276c25 0 36 11 36 36v117c0 25-11 36-36 36H105c-25 0-36-11-36-36V36c0-25 11-36 36-36z"/>
    <path id="m" d="M260 0c25 0 36 11 36 36v222h167V36c0-25 11-36 36-36h155c25 0 36 11 36 36v648c0 25-11 36-36 36H499c-25 0-36-11-36-36V467H296v217c0 25-11 36-36 36H105c-25 0-36-11-36-36V36c0-25 11-36 36-36z"/>
    <path id="p" d="M89 0h426c25 0 36 11 36 36v119c0 25-11 36-36 36h-97v336h97c25 0 36 11 36 36v121c0 25-11 36-36 36H89c-25 0-36-11-36-36V563c0-25 11-36 36-36h99V191H89c-25 0-36-11-36-36V36C53 11 64 0 89 0z"/>
    <path id="r" d="M254 0c25 0 36 11 36 36v352l59-109c12-23 27-32 53-32h40c26 0 41 9 53 32l59 109V36c0-25 10-36 36-36h154c25 0 36 11 36 36v648c0 25-11 36-36 36H582c-21 0-34-8-46-30l-89-163c-7-12-10-17-18-17h-9c-8 0-11 5-18 17l-90 163c-12 22-25 30-46 30H105c-25 0-36-11-36-36V36c0-25 11-36 36-36z"/>
    <path id="t" d="M255 0c25 0 36 11 36 36v330l171-207V36c0-25 11-36 36-36h150c25 0 36 11 36 36v648c0 25-11 36-36 36H498c-25 0-36-11-36-36V471L268 693c-17 20-33 27-59 27H105c-25 0-36-11-36-36V36c0-25 11-36 36-36z"/>
    <path id="u" d="M679 189v341c0 122-60 205-310 205S58 652 58 530V189C58 67 119-15 369-15s310 82 310 204zm-394 36v269c0 26 12 46 84 46 73 0 84-20 84-46V225c0-27-11-47-84-47-72 0-84 20-84 47z"/>
    <path id="v" d="M456 273c95 13 155 54 155 166v105c0 114-77 176-207 176H81c-25 0-36-11-36-36V563c0-26 11-36 36-36h276c17 0 27-9 27-28 0-20-7-28-27-31l-199-28c-25-3-37-15-33-41l21-132c4-25 14-34 39-31zM344 0c25 0 36 11 36 36v131c0 26-11 36-36 36H161c-26 0-36-10-36-36V36c0-25 10-36 36-36z"/>
    <path id="o" d="M295 540h75c35 0 44-20 44-47v-34c0-27-9-47-44-47h-75zM259 0c25 0 36 11 36 36v196h140c28 0 38-13 38-43V36c0-25 11-36 36-36h155c25 0 36 11 36 36v212c0 84-48 137-121 145 42 18 56 58 56 114v46c0 99-47 167-197 167H105c-25 0-36-11-36-36V36c0-25 11-36 36-36z"/>
    <path id="q" d="M403 0c129 0 207 62 207 176v105c0 112-62 152-156 166l-149 20c-17 2-27 14-27 32s10 30 27 30h233c25 0 36 11 36 36v119c0 25-11 36-36 36H258c-130 0-207-62-207-176V439c0-112 61-152 155-166l150-21c17-2 26-11 26-34 0-16-9-29-26-29H87c-25 0-36-11-36-36V36C51 11 62 0 87 0z"/>
    <path id="s" d="M434 0c25 0 36 11 36 36v127l152 206c30 41 38 61 38 123v192c0 25-11 36-36 36H475c-25 0-36-11-36-36V520c0-14 0-28-9-42l-46-72c-7-12-13-17-24-17h-10c-11 0-17 5-24 17l-46 72c-9 14-9 28-9 42v164c0 25-11 36-36 36H81c-25 0-36-11-36-36V492c0-62 7-82 38-123l153-205V36c0-25 10-36 36-36zm-82 747zm0-747z"/>
    <path id="w" d="M439 345h-45c-21 0-32-9-49-47l-82-184c-6-14-17-14-27-14h-5c-11 0-21 10-23 21l-25 114c-5 25-5 71-5 101v294h-10V335c0-30 0-76 5-101l25-113c5-22 17-31 33-31h7c12 0 27 3 33 17l82 186c16 36 25 42 41 42h45c16 0 25-6 41-42l82-186c6-14 21-17 33-17h7c16 0 28 9 33 31l25 113c5 25 5 71 5 101v295h-10V336c0-30 0-76-5-101l-25-114c-2-11-12-21-23-21h-5c-10 0-21 0-27 14l-82 184c-17 38-28 47-49 47zm-24 402zm0-747z"/>
    <path id="y" d="M515 100H188v259h246v10H188v251h327v10H178V90h337z"/>
    <path id="x" d="M177 90h10v265h384V90h10v540h-10V365H187v265h-10z"/>
    <path id="A" d="M461 90v10H308v520h153v10H143v-10h155V100H143V90z"/>
    <path id="C" d="M421 385c-24 0-28 7-51 42L248 613c-8 13-19 17-30 17h-17c-18 0-26-9-26-31V90h10v509c0 11 2 21 16 21h15c9 0 16-1 24-14l122-184c24-36 30-47 59-47s35 11 59 47l122 184c8 13 14 14 23 14h15c14 0 17-10 17-21V90h10v509c0 22-8 31-27 31h-17c-11 0-21-4-29-17L472 427c-23-35-27-42-51-42z"/>
    <path id="E" d="M201 622c-7 7-9 9-15 9s-12-4-12-12V90h10v527c0 1 0 3 2 3s3-1 5-3l378-424V90h10v540h-10V208z"/>
    <path id="F" d="M570 212v295c0 81-46 135-203 135s-201-54-201-135V212c0-81 44-135 201-135s203 54 203 135zm-394 0v295c0 75 42 125 191 125s193-50 193-125V212c0-75-44-125-193-125s-191 50-191 125z"/>
    <path id="G" d="M225 340l216 30c31 4 57 13 57 54v113c0 73-48 91-94 91H135v-10h269c41 0 84-16 84-81V424c0-35-24-40-49-44l-216-29zm23-260h10v43h-10z"/>
    <path id="z" d="M405 620c71 0 104-42 104-104v-70c0-74-21-115-104-115H187v289zM187 90v232h283c76 0 111-32 111-98V90h10v134c0 70-39 107-121 107h-11c48 15 60 55 60 116v69c0 66-36 114-114 114H177V90z"/>
    <path id="B" d="M484 630H262c-62 0-102-38-102-91v-82c0-55 24-70 59-77l211-43c37-8 61-25 61-88v-58c0-53-39-91-101-91H141V90h249c68 0 111 42 111 101v58c0 70-29 90-69 98l-211 43c-31 6-51 20-51 67v82c0 47 36 81 92 81h222z"/>
    <path id="D" d="M365 261c31 0 52 13 74 42l100 135c16 21 15 48 15 77v115h-10V515c0-28 0-55-14-73L430 307c-20-26-40-36-65-36h-27c-23 0-46 9-64 36l-97 135c-13 20-14 45-14 73v115h-10V515c0-29 0-57 15-77l97-135c22-30 44-42 73-42h10V90h10v171zm-13 486zm0-747z"/>
  </defs>
  <use fill="#1d515d" transform="matrix(.144 0 0 -.144 37.76 150.08)" xlink:href="#a"/>
  <use fill="#1d515d" transform="matrix(.144 0 0 -.144 157.424 150.08)" xlink:href="#b"/>
  <use fill="#1d515d" transform="matrix(.144 0 0 -.144 266.72 150.08)" xlink:href="#c"/>
  <use fill="#1d515d" transform="matrix(.144 0 0 -.144 360.896 150.08)" xlink:href="#d"/>
  <use fill="#1d515d" transform="matrix(.144 0 0 -.144 467.888 150.08)" xlink:href="#c"/>
  <use fill="#1d515d" transform="matrix(.144 0 0 -.144 562.064 150.08)" xlink:href="#shade-20"/>
  <use fill="#1d515d" transform="matrix(.144 0 0 -.144 594.464 150.08)" xlink:href="#e"/>
  <use fill="#1d515d" transform="matrix(.144 0 0 -.144 681.584 150.08)" xlink:href="#f"/>
  <use fill="#1d515d" transform="matrix(.144 0 0 -.144 775.184 150.08)" xlink:href="#shade-20"/>
  <use fill="#1d515d" transform="matrix(.144 0 0 -.144 807.584 150.08)" xlink:href="#g"/>
  <use fill="#1d515d" transform="matrix(.144 0 0 -.144 929.84 150.08)" xlink:href="#h"/>
  <use fill="#1d515d" transform="matrix(.144 0 0 -.144 1029.92 150.08)" xlink:href="#shade-20"/>
  <use fill="#1d515d" transform="matrix(.144 0 0 -.144 1062.32 150.08)" xlink:href="#i"/>
  <use fill="#1d515d" transform="matrix(.144 0 0 -.144 1170.752 150.08)" xlink:href="#j"/>
  <use fill="#1d515d" transform="matrix(.144 0 0 -.144 1276.88 150.08)" xlink:href="#f"/>
  <use fill="#1d515d" transform="matrix(.144 0 0 -.144 1370.48 150.08)" xlink:href="#c"/>
  <use fill="#1d515d" transform="matrix(.144 0 0 -.144 1464.656 150.08)" xlink:href="#k"/>
  <use fill="#fff" transform="matrix(.144 0 0 -.144 37.76 150.08)" xlink:href="#l"/>
  <use fill="#fff" transform="matrix(.144 0 0 -.144 157.424 150.08)" xlink:href="#m"/>
  <use fill="#fff" transform="matrix(.144 0 0 -.144 266.72 150.08)" xlink:href="#n"/>
  <use fill="#fff" transform="matrix(.144 0 0 -.144 360.896 150.08)" xlink:href="#o"/>
  <use fill="#fff" transform="matrix(.144 0 0 -.144 467.888 150.08)" xlink:href="#n"/>
  <use fill="#fff" transform="matrix(.144 0 0 -.144 562.064 150.08)" xlink:href="#regular-20"/>
  <use fill="#fff" transform="matrix(.144 0 0 -.144 594.464 150.08)" xlink:href="#p"/>
  <use fill="#fff" transform="matrix(.144 0 0 -.144 681.584 150.08)" xlink:href="#q"/>
  <use fill="#fff" transform="matrix(.144 0 0 -.144 775.184 150.08)" xlink:href="#regular-20"/>
  <use fill="#fff" transform="matrix(.144 0 0 -.144 807.584 150.08)" xlink:href="#r"/>
  <use fill="#fff" transform="matrix(.144 0 0 -.144 929.84 150.08)" xlink:href="#s"/>
  <use fill="#fff" transform="matrix(.144 0 0 -.144 1029.92 150.08)" xlink:href="#regular-20"/>
  <use fill="#fff" transform="matrix(.144 0 0 -.144 1062.32 150.08)" xlink:href="#t"/>
  <use fill="#fff" transform="matrix(.144 0 0 -.144 1170.752 150.08)" xlink:href="#u"/>
  <use fill="#fff" transform="matrix(.144 0 0 -.144 1276.88 150.08)" xlink:href="#q"/>
  <use fill="#fff" transform="matrix(.144 0 0 -.144 1370.48 150.08)" xlink:href="#n"/>
  <use fill="#fff" transform="matrix(.144 0 0 -.144 1464.656 150.08)" xlink:href="#v"/>
  <use fill="#587aff" transform="matrix(.144 0 0 -.144 37.76 150.08)" xlink:href="#w"/>
  <use fill="#587aff" transform="matrix(.144 0 0 -.144 157.424 150.08)" xlink:href="#x"/>
  <use fill="#587aff" transform="matrix(.144 0 0 -.144 266.72 150.08)" xlink:href="#y"/>
  <use fill="#587aff" transform="matrix(.144 0 0 -.144 360.896 150.08)" xlink:href="#z"/>
  <use fill="#587aff" transform="matrix(.144 0 0 -.144 467.888 150.08)" xlink:href="#y"/>
  <use fill="#587aff" transform="matrix(.144 0 0 -.144 562.064 150.08)" xlink:href="#inline-20"/>
  <use fill="#587aff" transform="matrix(.144 0 0 -.144 594.464 150.08)" xlink:href="#A"/>
  <use fill="#587aff" transform="matrix(.144 0 0 -.144 681.584 150.08)" xlink:href="#B"/>
  <use fill="#587aff" transform="matrix(.144 0 0 -.144 775.184 150.08)" xlink:href="#inline-20"/>
  <use fill="#587aff" transform="matrix(.144 0 0 -.144 807.584 150.08)" xlink:href="#C"/>
  <use fill="#587aff" transform="matrix(.144 0 0 -.144 929.84 150.08)" xlink:href="#D"/>
  <use fill="#587aff" transform="matrix(.144 0 0 -.144 1029.92 150.08)" xlink:href="#inline-20"/>
  <use fill="#587aff" transform="matrix(.144 0 0 -.144 1062.32 150.08)" xlink:href="#E"/>
  <use fill="#587aff" transform="matrix(.144 0 0 -.144 1170.752 150.08)" xlink:href="#F"/>
  <use fill="#587aff" transform="matrix(.144 0 0 -.144 1276.88 150.08)" xlink:href="#B"/>
  <use fill="#587aff" transform="matrix(.144 0 0 -.144 1370.48 150.08)" xlink:href="#y"/>
  <use fill="#587aff" transform="matrix(.144 0 0 -.144 1464.656 150.08)" xlink:href="#G"/>
</svg>
